<mxfile host="app.diagrams.net" modified="2023-04-13T12:28:45.811Z" agent="Mozilla/5.0 (X11; Ubuntu; Linux x86_64; rv:109.0) Gecko/20100101 Firefox/111.0" etag="8AAn0ra0ed-PzkmgBXjH" version="21.1.7" type="github">
  <diagram name="Page-1" id="S09wOH1fnD4gX_fz5439">
    <mxGraphModel dx="1360" dy="766" grid="1" gridSize="10" guides="1" tooltips="1" connect="1" arrows="1" fold="1" page="1" pageScale="1" pageWidth="1100" pageHeight="850" math="0" shadow="0">
      <root>
        <mxCell id="0" />
        <mxCell id="1" parent="0" />
        <mxCell id="HESSKM9lZQVeg6lU9n12-8" style="edgeStyle=orthogonalEdgeStyle;rounded=0;orthogonalLoop=1;jettySize=auto;html=1;exitX=0.5;exitY=1;exitDx=0;exitDy=0;entryX=0.75;entryY=0;entryDx=0;entryDy=0;" edge="1" parent="1" source="HESSKM9lZQVeg6lU9n12-1" target="HESSKM9lZQVeg6lU9n12-3">
          <mxGeometry relative="1" as="geometry" />
        </mxCell>
        <mxCell id="HESSKM9lZQVeg6lU9n12-1" value="IMU" style="rounded=0;whiteSpace=wrap;html=1;" vertex="1" parent="1">
          <mxGeometry x="820" y="120" width="120" height="60" as="geometry" />
        </mxCell>
        <mxCell id="HESSKM9lZQVeg6lU9n12-6" style="edgeStyle=orthogonalEdgeStyle;rounded=0;orthogonalLoop=1;jettySize=auto;html=1;exitX=0.5;exitY=1;exitDx=0;exitDy=0;entryX=0.5;entryY=0;entryDx=0;entryDy=0;" edge="1" parent="1" source="HESSKM9lZQVeg6lU9n12-2" target="HESSKM9lZQVeg6lU9n12-3">
          <mxGeometry relative="1" as="geometry" />
        </mxCell>
        <mxCell id="HESSKM9lZQVeg6lU9n12-7" style="edgeStyle=orthogonalEdgeStyle;rounded=0;orthogonalLoop=1;jettySize=auto;html=1;exitX=0.25;exitY=1;exitDx=0;exitDy=0;entryX=0.5;entryY=0;entryDx=0;entryDy=0;" edge="1" parent="1" source="HESSKM9lZQVeg6lU9n12-2" target="HESSKM9lZQVeg6lU9n12-4">
          <mxGeometry relative="1" as="geometry" />
        </mxCell>
        <mxCell id="HESSKM9lZQVeg6lU9n12-2" value="Lidar" style="rounded=0;whiteSpace=wrap;html=1;" vertex="1" parent="1">
          <mxGeometry x="480" y="120" width="120" height="60" as="geometry" />
        </mxCell>
        <mxCell id="HESSKM9lZQVeg6lU9n12-5" style="edgeStyle=orthogonalEdgeStyle;rounded=0;orthogonalLoop=1;jettySize=auto;html=1;" edge="1" parent="1" source="HESSKM9lZQVeg6lU9n12-3" target="HESSKM9lZQVeg6lU9n12-4">
          <mxGeometry relative="1" as="geometry" />
        </mxCell>
        <mxCell id="HESSKM9lZQVeg6lU9n12-9" value="Ego vehicle state" style="edgeLabel;html=1;align=center;verticalAlign=middle;resizable=0;points=[];" vertex="1" connectable="0" parent="HESSKM9lZQVeg6lU9n12-5">
          <mxGeometry x="-0.28" relative="1" as="geometry">
            <mxPoint x="-8" y="10" as="offset" />
          </mxGeometry>
        </mxCell>
        <mxCell id="HESSKM9lZQVeg6lU9n12-3" value="Optimization graph" style="rounded=0;whiteSpace=wrap;html=1;" vertex="1" parent="1">
          <mxGeometry x="750" y="320" width="120" height="60" as="geometry" />
        </mxCell>
        <mxCell id="HESSKM9lZQVeg6lU9n12-4" value="Map update" style="rounded=0;whiteSpace=wrap;html=1;" vertex="1" parent="1">
          <mxGeometry x="430" y="320" width="120" height="60" as="geometry" />
        </mxCell>
      </root>
    </mxGraphModel>
  </diagram>
</mxfile>
